<svg id="Capa_1" enable-background="new 0 0 512.001 512.001" height="512" viewBox="0 0 512.001 512.001" width="512" xmlns="http://www.w3.org/2000/svg"><g><path fill="#fff" d="m473.695 386.501 38.092-222.975c.951-5.567-1.307-11.197-5.84-14.565-4.534-3.368-10.575-3.905-15.632-1.388l-60.057 29.904-30.778-63.056c-2.089-4.28-6.086-7.314-10.771-8.174-4.69-.862-9.5.555-12.973 3.814l-55.286 51.873-24.721-32.96c9.448-9.881 15.27-23.256 15.27-37.974 0-30.327-24.673-55-55-55s-55 24.673-55 55c0 14.718 5.822 28.093 15.27 37.974l-24.721 32.96-55.286-51.873c-3.473-3.259-8.286-4.678-12.973-3.814-4.685.859-8.682 3.894-10.771 8.174l-30.778 63.056-60.057-29.904c-5.057-2.518-11.098-1.98-15.632 1.388-4.533 3.368-6.791 8.998-5.84 14.565l38.092 222.975c-21.649 3.243-38.305 21.961-38.305 44.5 0 24.813 20.187 45 45 45h422c24.813 0 45-20.187 45-45 .003-22.539-16.653-41.257-38.303-44.5zm-92.257-240.651 21.964 44.999-44.606 22.211-20.235-26.98zm-125.437-79.849c13.785 0 25 11.215 25 25s-11.215 25-25 25-25-11.215-25-25 11.215-25 25-25zm-125.438 79.849 42.877 40.23-20.235 26.98-44.605-22.21zm20.883 99.847c6.4 3.188 14.162 1.413 18.543-4.24.833-1.075 1.499-2.233 2-3.441l70.308-93.743c4.382 1.128 8.974 1.729 13.703 1.729s9.321-.601 13.703-1.729l70.337 93.781c.509 1.217 1.186 2.381 2.031 3.461 4.392 5.607 12.122 7.351 18.494 4.178l116.674-58.096-33.895 198.404h-374.688l-33.895-198.405zm315.555 200.304h-422c-8.271 0-15-6.729-15-15s6.729-15 15-15h422c8.271 0 15 6.729 15 15s-6.729 15-15 15z"/><path fill="#fff" d="m256.001 352.001c33.084 0 60-26.916 60-60s-26.916-60-60-60-60 26.916-60 60 26.916 60 60 60zm0-90c16.542 0 30 13.458 30 30s-13.458 30-30 30-30-13.458-30-30 13.458-30 30-30z"/></g></svg>